<svg version="1.1" id="Layer_1" xmlns="http://www.w3.org/2000/svg" xmlns:xlink="http://www.w3.org/1999/xlink" x="0px" y="0px"
	 width="100%" viewBox="0 0 1024 1024" enable-background="new 0 0 1024 1024" xml:space="preserve">
<path fill="#000000" opacity="1.000000" stroke="none" 
	d="
M1025.000000,236.000000 
	C1025.000000,499.333344 1025.000000,762.166687 1025.000000,1025.000000 
	C683.666687,1025.000000 342.333344,1025.000000 1.000000,1025.000000 
	C1.000000,683.666687 1.000000,342.333344 1.000000,1.000000 
	C342.333344,1.000000 683.666687,1.000000 1025.000000,1.000000 
	C1025.000000,79.166664 1025.000000,157.333328 1025.000000,236.000000 
M19.000000,837.500000 
	C19.000700,879.830933 18.977606,922.161804 19.012079,964.492737 
	C19.029467,985.841492 36.047169,1002.983704 57.288280,1002.984924 
	C359.107300,1003.001526 660.926331,1003.001587 962.745361,1002.984680 
	C983.786194,1002.983521 1000.981323,985.900208 1000.982666,964.964783 
	C1001.002563,662.979126 1001.002625,360.993408 1000.982727,59.007736 
	C1000.981323,38.352646 983.752319,21.021511 963.194885,21.020004 
	C661.042542,20.997856 358.890198,21.003487 56.737854,21.029760 
	C54.424145,21.029963 52.060680,21.169546 49.804657,21.644241 
	C31.870731,25.417753 18.849541,42.179806 18.863853,60.536877 
	C19.065527,319.191132 19.000402,577.845581 19.000000,837.500000 
z"/>
<path fill="#2B2A29" opacity="1.000000" stroke="none" 
	d="
M19.000000,837.000000 
	C19.000402,577.845581 19.065527,319.191132 18.863853,60.536877 
	C18.849541,42.179806 31.870731,25.417753 49.804657,21.644241 
	C52.060680,21.169546 54.424145,21.029963 56.737854,21.029760 
	C358.890198,21.003487 661.042542,20.997856 963.194885,21.020004 
	C983.752319,21.021511 1000.981323,38.352646 1000.982727,59.007736 
	C1001.002625,360.993408 1001.002563,662.979126 1000.982666,964.964783 
	C1000.981323,985.900208 983.786194,1002.983521 962.745361,1002.984680 
	C660.926331,1003.001587 359.107300,1003.001526 57.288280,1002.984924 
	C36.047169,1002.983704 19.029467,985.841492 19.012079,964.492737 
	C18.977606,922.161804 19.000700,879.830933 19.000000,837.000000 
M169.500000,975.000000 
	C419.967865,975.000000 670.435730,975.008179 920.903564,974.954651 
	C927.374817,974.953308 933.870789,974.519897 940.311768,973.862854 
	C951.915100,972.679077 960.342468,966.242859 966.574951,956.780212 
	C972.430359,947.890076 972.977112,937.686951 972.978088,927.488770 
	C973.005371,651.857605 973.007141,376.226440 972.954773,100.595291 
	C972.953552,94.290092 972.538513,87.956894 971.861023,81.685966 
	C970.589844,69.919487 964.097656,61.411205 954.345398,55.177273 
	C945.509888,49.529266 935.503174,49.029331 925.490723,49.028065 
	C650.026184,48.993202 374.561707,48.992687 99.097198,49.045307 
	C92.625893,49.046543 86.126335,49.456142 79.689651,50.141823 
	C67.917946,51.395821 59.403465,57.900673 53.183475,67.654800 
	C47.553196,76.484138 47.028175,86.492981 47.026951,96.508141 
	C46.993443,370.306213 46.991661,644.104248 47.042698,917.902344 
	C47.044151,925.707642 47.499638,933.525757 48.059532,941.315125 
	C48.926926,953.382629 55.491852,962.054749 65.207558,968.591919 
	C73.155144,973.939514 82.347702,974.846802 91.510529,974.922363 
	C117.172157,975.133911 142.836639,974.998474 169.500000,975.000000 
z"/>
<path fill="#000000" opacity="1.000000" stroke="none" 
	d="
M169.000000,975.000000 
	C142.836639,974.998474 117.172157,975.133911 91.510529,974.922363 
	C82.347702,974.846802 73.155144,973.939514 65.207558,968.591919 
	C55.491852,962.054749 48.926926,953.382629 48.059532,941.315125 
	C47.499638,933.525757 47.044151,925.707642 47.042698,917.902344 
	C46.991661,644.104248 46.993443,370.306213 47.026951,96.508141 
	C47.028175,86.492981 47.553196,76.484138 53.183475,67.654800 
	C59.403465,57.900673 67.917946,51.395821 79.689651,50.141823 
	C86.126335,49.456142 92.625893,49.046543 99.097198,49.045307 
	C374.561707,48.992687 650.026184,48.993202 925.490723,49.028065 
	C935.503174,49.029331 945.509888,49.529266 954.345398,55.177273 
	C964.097656,61.411205 970.589844,69.919487 971.861023,81.685966 
	C972.538513,87.956894 972.953552,94.290092 972.954773,100.595291 
	C973.007141,376.226440 973.005371,651.857605 972.978088,927.488770 
	C972.977112,937.686951 972.430359,947.890076 966.574951,956.780212 
	C960.342468,966.242859 951.915100,972.679077 940.311768,973.862854 
	C933.870789,974.519897 927.374817,974.953308 920.903564,974.954651 
	C670.435730,975.008179 419.967865,975.000000 169.000000,975.000000 
M335.133240,371.762604 
	C330.169403,386.063477 325.242737,400.377411 320.234772,414.662781 
	C305.428558,456.897949 290.585480,499.120178 275.768127,541.351440 
	C272.389465,550.981018 272.410522,550.996643 282.354828,550.998047 
	C312.853577,551.002441 343.352325,551.000671 373.851074,550.999756 
	C401.016632,550.998901 428.182281,550.954895 455.347565,551.039978 
	C459.232452,551.052124 461.901001,550.374023 463.173004,546.010193 
	C467.920868,529.722473 472.990173,513.528503 477.941925,497.300232 
	C488.186859,463.724609 498.427765,430.147797 508.699585,396.580444 
	C509.154602,395.093597 509.898071,393.695068 510.942291,391.226776 
	C511.939972,393.487518 512.596558,394.596893 512.932373,395.796082 
	C515.666870,405.561249 518.334595,415.345093 521.035278,425.119751 
	C529.499329,455.754150 537.917542,486.401306 546.450745,517.016418 
	C554.894226,547.309448 563.506836,577.555359 571.934509,607.852722 
	C574.461548,616.937378 574.291382,616.997192 564.975281,616.997498 
	C471.479126,617.000854 377.982941,616.999634 284.486786,617.000366 
	C274.487213,617.000488 264.485443,617.125977 254.489075,616.947998 
	C250.488541,616.876709 248.109009,617.985718 246.708893,622.109924 
	C238.792862,645.427063 230.583145,668.644409 222.545517,691.920593 
	C205.922684,740.058716 189.332367,788.208252 172.765366,836.365662 
	C170.698380,842.373962 171.151459,842.978394 177.531281,842.980408 
	C242.861923,843.001099 308.192596,842.965759 373.523102,843.053284 
	C377.844910,843.059082 379.979767,841.730896 381.252136,837.313660 
	C388.573181,811.896667 396.335358,786.607056 403.704346,761.203552 
	C405.039062,756.602234 407.171204,754.894348 412.068085,754.905457 
	C477.398407,755.053955 542.729309,755.053833 608.059570,754.908325 
	C613.035889,754.897217 614.950439,756.713013 616.181335,761.380432 
	C622.755615,786.308533 629.863098,811.096802 636.328064,836.052124 
	C637.830627,841.852173 640.681335,843.112183 646.145874,843.099060 
	C710.976196,842.943176 775.807007,842.998779 840.637695,842.998596 
	C841.304321,842.998596 841.971069,843.002441 842.637573,842.990662 
	C848.758240,842.882446 849.234619,842.308228 847.344666,836.671509 
	C845.706299,831.784851 843.877930,826.962158 842.172363,822.097595 
	C831.105042,790.531677 820.051819,758.960815 808.987366,727.393921 
	C795.060181,687.659729 781.120850,647.929932 767.197632,608.194336 
	C753.770508,569.874695 740.346924,531.553772 726.940308,493.226837 
	C709.684998,443.897095 692.444275,394.562225 675.204407,345.227051 
	C656.758972,292.441803 638.306702,239.658936 619.908569,186.857178 
	C618.379272,182.468155 615.729248,180.895676 610.970337,180.905914 
	C543.640076,181.050552 476.309235,181.064606 408.979126,180.890976 
	C403.550201,180.876953 401.346008,183.228638 399.786530,187.858002 
	C395.697205,199.997345 391.274445,212.023911 387.052338,224.119080 
	C372.631409,265.431091 358.257507,306.759521 343.820770,348.065979 
	C341.131470,355.760681 338.234070,363.382660 335.133240,371.762604 
z"/>
<path fill="#2B2A29" opacity="1.000000" stroke="none" 
	d="
M335.282959,371.400391 
	C338.234070,363.382660 341.131470,355.760681 343.820770,348.065979 
	C358.257507,306.759521 372.631409,265.431091 387.052338,224.119080 
	C391.274445,212.023911 395.697205,199.997345 399.786530,187.858002 
	C401.346008,183.228638 403.550201,180.876953 408.979126,180.890976 
	C476.309235,181.064606 543.640076,181.050552 610.970337,180.905914 
	C615.729248,180.895676 618.379272,182.468155 619.908569,186.857178 
	C638.306702,239.658936 656.758972,292.441803 675.204407,345.227051 
	C692.444275,394.562225 709.684998,443.897095 726.940308,493.226837 
	C740.346924,531.553772 753.770508,569.874695 767.197632,608.194336 
	C781.120850,647.929932 795.060181,687.659729 808.987366,727.393921 
	C820.051819,758.960815 831.105042,790.531677 842.172363,822.097595 
	C843.877930,826.962158 845.706299,831.784851 847.344666,836.671509 
	C849.234619,842.308228 848.758240,842.882446 842.637573,842.990662 
	C841.971069,843.002441 841.304321,842.998596 840.637695,842.998596 
	C775.807007,842.998779 710.976196,842.943176 646.145874,843.099060 
	C640.681335,843.112183 637.830627,841.852173 636.328064,836.052124 
	C629.863098,811.096802 622.755615,786.308533 616.181335,761.380432 
	C614.950439,756.713013 613.035889,754.897217 608.059570,754.908325 
	C542.729309,755.053833 477.398407,755.053955 412.068085,754.905457 
	C407.171204,754.894348 405.039062,756.602234 403.704346,761.203552 
	C396.335358,786.607056 388.573181,811.896667 381.252136,837.313660 
	C379.979767,841.730896 377.844910,843.059082 373.523102,843.053284 
	C308.192596,842.965759 242.861923,843.001099 177.531281,842.980408 
	C171.151459,842.978394 170.698380,842.373962 172.765366,836.365662 
	C189.332367,788.208252 205.922684,740.058716 222.545517,691.920593 
	C230.583145,668.644409 238.792862,645.427063 246.708893,622.109924 
	C248.109009,617.985718 250.488541,616.876709 254.489075,616.947998 
	C264.485443,617.125977 274.487213,617.000488 284.486786,617.000366 
	C377.982941,616.999634 471.479126,617.000854 564.975281,616.997498 
	C574.291382,616.997192 574.461548,616.937378 571.934509,607.852722 
	C563.506836,577.555359 554.894226,547.309448 546.450745,517.016418 
	C537.917542,486.401306 529.499329,455.754150 521.035278,425.119751 
	C518.334595,415.345093 515.666870,405.561249 512.932373,395.796082 
	C512.596558,394.596893 511.939972,393.487518 510.942291,391.226776 
	C509.898071,393.695068 509.154602,395.093597 508.699585,396.580444 
	C498.427765,430.147797 488.186859,463.724609 477.941925,497.300232 
	C472.990173,513.528503 467.920868,529.722473 463.173004,546.010193 
	C461.901001,550.374023 459.232452,551.052124 455.347565,551.039978 
	C428.182281,550.954895 401.016632,550.998901 373.851074,550.999756 
	C343.352325,551.000671 312.853577,551.002441 282.354828,550.998047 
	C272.410522,550.996643 272.389465,550.981018 275.768127,541.351440 
	C290.585480,499.120178 305.428558,456.897949 320.234772,414.662781 
	C325.242737,400.377411 330.169403,386.063477 335.282959,371.400391 
z"/>
</svg>